# xmcd
#
# Track frame offsets:
#	150
#	9467
#	19280
#	33007
#	43352
#	53767
#	66657
#	79875
#	91172
#	102555
#	111270
#	123905
#	134580
#	147695
#	162037
#	174427
#	186912
#	200322
#	211090
#	223285
#	235862
#	248775
#	262590
#	274305
#	287165
#	299345
#	311520
#
# Disc length: 4275 seconds
#
# Revision: 1
# Processed by: cddbd v1.5.2PL0 Copyright (c) Steve Scherf et al.
# Submitted via: audiograbber 1.80.04
#
DISCID=9b10b11b
DTITLE=Darrell McCall - The Real McCall [CD3]
DYEAR=196
DGENRE=Pop
TTITLE0=It's The Water
TTITLE1=Rainbow At Midnight
TTITLE2=Eleven Roses
TTITLE3=Goodbye Of The Year
TTITLE4=I Still Want You
TTITLE5=Warm Red Wine (You Are My Sunshine)
TTITLE6=The Man You're Most Likely To Forget
TTITLE7=This Time I Won't Cheat On Her Again
TTITLE8=A Loser Never Had A Better Friend
TTITLE9=Here We Go Again
TTITLE10=There's Still A Lot Of Love In San Antone
TTITLE11=A Texas Honky Tonk
TTITLE12=Yours And His
TTITLE13=I Am Love
TTITLE14=Where Is All That Love You Talked About
TTITLE15=If You Don't Know Your Roses
TTITLE16=The Genuine Healer Of Time
TTITLE17=It's The Water
TTITLE18=Never Some Night
TTITLE19=Eleven Roses
TTITLE20=Champagne Ladies And Blue Ribbon Babies
TTITLE21=Letting Her Be Free
TTITLE22=Face To The Wall
TTITLE23=Cold Beer Signs And Country Songs
TTITLE24=If You Don't Believe I Love You
TTITLE25=She'll Keep Bringin' All Her Love To Me
TTITLE26=Helpless
EXTD=
EXTT0=
EXTT1=
EXTT2=
EXTT3=
EXTT4=
EXTT5=
EXTT6=
EXTT7=
EXTT8=
EXTT9=
EXTT10=
EXTT11=
EXTT12=
EXTT13=
EXTT14=
EXTT15=
EXTT16=
EXTT17=
EXTT18=
EXTT19=
EXTT20=
EXTT21=
EXTT22=
EXTT23=
EXTT24=
EXTT25=
EXTT26=
PLAYORDER=
